# xmcd CD database file
#
# Track frame offsets:
#	182
#	17005
#	44255
#	68352
#	93205
#	115977
#	136980
#	158065
#	176425
#	200317
#	227422
#	254600
#	274537
#	306010
#	323837
#	341765
#
# Disc length: 4763 seconds
#
# Revision: 0
# Processed by: cddbd v1.5.2PL0 Copyright (c) Steve Scherf et al.
# Submitted via: CDex 1.70beta1
#
DISCID=cd129910
DTITLE=The Keith SmithHefty Jazz All Stars - Swing Is Here Again
DYEAR=1900
DGENRE=Jazz
TTITLE0=Chicken Ain't Nothin' But A Bird
TTITLE1=Patrol Wagon Blues
TTITLE2=Just A Sittin' And A Rockin'
TTITLE3=Perdido Street Blues
TTITLE4=Sweet Marajuana Brown
TTITLE5=Caldonia
TTITLE6=Let's Fly Away
TTITLE7=I Love You
TTITLE8=Medi Two
TTITLE9=You're A Lucky Guy
TTITLE10=After You've Gone
TTITLE11=Red Rides Again
TTITLE12=Gee Baby Ain't |I Good To You
TTITLE13=Struttin With Some Barbaque
TTITLE14=It's Wonderful
TTITLE15=Dippermouth Blues
EXTD=
EXTT0=
EXTT1=
EXTT2=
EXTT3=
EXTT4=
EXTT5=
EXTT6=
EXTT7=
EXTT8=
EXTT9=
EXTT10=
EXTT11=
EXTT12=
EXTT13=
EXTT14=
EXTT15=
PLAYORDER=
